<svg width="24" height="25" viewBox="0 0 24 25" fill="none" xmlns="http://www.w3.org/2000/svg">
<path d="M19.6927 16.4345C19.0029 15.6359 17.7117 14.4346 17.7117 10.5C17.713 9.08801 17.2572 7.71969 16.4229 6.63048C15.5885 5.54127 14.4278 4.79927 13.1403 4.53214V3.73077C13.1403 3.56914 13.1108 3.4091 13.0533 3.25977C12.9959 3.11045 12.9117 2.97477 12.8056 2.86048C12.6995 2.7462 12.5735 2.65554 12.4348 2.59369C12.2962 2.53183 12.1476 2.5 11.9975 2.5C11.8474 2.5 11.6988 2.53183 11.5601 2.59369C11.4215 2.65554 11.2955 2.7462 11.1894 2.86048C11.0832 2.97477 10.9991 3.11045 10.9416 3.25977C10.8842 3.4091 10.8546 3.56914 10.8546 3.73077V4.53214C9.56717 4.79927 8.40642 5.54127 7.57208 6.63048C6.73774 7.71969 6.28198 9.08801 6.28322 10.5C6.28322 14.4346 4.99205 15.6359 4.30227 16.4345C4.10553 16.6605 3.99728 16.9595 4.00005 17.2692C4.00019 17.4311 4.02995 17.5914 4.08766 17.7409C4.14536 17.8904 4.22987 18.0262 4.33634 18.1405C4.44281 18.2549 4.56917 18.3454 4.70818 18.4071C4.84718 18.4688 4.99612 18.5004 5.14646 18.5H18.8536C19.0039 18.5004 19.1529 18.4688 19.2919 18.4071C19.4309 18.3454 19.5572 18.2549 19.6637 18.1405C19.7702 18.0262 19.8547 17.8904 19.9124 17.7409C19.9701 17.5914 19.9999 17.4311 20 17.2692C20.0014 16.9587 19.8913 16.6596 19.6927 16.4345Z" stroke="#484848" stroke-width="1.5"/>
<path d="M11 3.5H13V4.79032L12.5 5.5H12H11.5L11 4.79032V3.5Z" fill="#484848"/>
<path d="M15 20C15 20.663 14.6839 21.2989 14.1213 21.7678C13.5587 22.2366 12.7956 22.5 12 22.5C11.2044 22.5 10.4413 22.2366 9.87868 21.7678C9.31607 21.2989 9 20.663 9 20L12 20H15Z" fill="#484848"/>
<circle cx="21" cy="3.5" r="3" fill="#23A25D"/>
</svg>
