                    <svg width="36" height="36" viewBox="0 0 36 36" fill="none" xmlns="http://www.w3.org/2000/svg">
                        <defs>
                            <linearGradient id="Gradient1">
                                <stop stop-color="#2CC8AE" offset="0%" />
                                <stop stop-color="#23A25D" offset="100%" />
                            </linearGradient>
                        </defs>
                        <rect x="0.5" y="0.5" width="35" height="35" rx="7.5" stroke="#D1D8E1" />
                        <path d="M25.14 25.14L25.01 25.01M25.01 10.99L25.14 10.86L25.01 10.99ZM10.86 25.14L10.99 25.01L10.86 25.14ZM18 8.08V8V8.08ZM18 28V27.92V28ZM8.08 18H8H8.08ZM28 18H27.92H28ZM10.99 10.99L10.86 10.86L10.99 10.99Z" stroke="#484848" stroke-width="2" stroke-linecap="round" stroke-linejoin="round" />
                        <path d="M18 24.5C21.5899 24.5 24.5 21.5899 24.5 18C24.5 14.4101 21.5899 11.5 18 11.5C14.4101 11.5 11.5 14.4101 11.5 18C11.5 21.5899 14.4101 24.5 18 24.5Z" stroke="#484848" stroke-width="1.5" stroke-linecap="round" stroke-linejoin="round" />
                    </svg>
                    