<svg width="234" height="55" viewBox="0 0 234 55" fill="none" xmlns="http://www.w3.org/2000/svg">
<mask id="mask0_767_17156" style="mask-type:luminance" maskUnits="userSpaceOnUse" x="0" y="0" width="234" height="55">
<path d="M233.728 0H0V55H233.728V0Z" fill="white"/>
</mask>
<g mask="url(#mask0_767_17156)">
<path fill-rule="evenodd" clip-rule="evenodd" d="M48.1831 8.44371L48.4762 10.1934C48.7073 11.8211 48.8143 13.4636 48.7965 15.1071C48.7945 18.739 48.3508 22.3575 47.4745 25.8849C46.2896 30.6772 44.2257 35.2147 41.3851 39.2729C38.1025 43.9335 33.3562 48.5177 26.4379 52.201L25.5915 52.6513L24.7452 52.201C17.8268 48.5177 13.0825 43.9335 9.79804 39.2729C6.95741 35.2147 4.89354 30.6772 3.70854 25.8849C2.83253 22.3581 2.3887 18.7402 2.38659 15.109C2.36871 13.4655 2.47578 11.823 2.70689 10.1953L3.00001 8.44562C3.02502 8.30294 3.02119 8.15676 2.98874 8.01554C2.95629 7.87433 2.89584 7.74084 2.81087 7.62278C2.72592 7.50473 2.61814 7.40443 2.49375 7.32769C2.36935 7.25094 2.2308 7.19926 2.08608 7.17562C1.94137 7.15197 1.79335 7.15684 1.65054 7.18993C1.50773 7.22302 1.37297 7.28369 1.25402 7.36844C1.13508 7.45318 1.03429 7.56032 0.957478 7.68368C0.880665 7.80706 0.829341 7.94422 0.806466 8.08726L0.513348 9.83693C0.261224 11.583 0.143768 13.3454 0.161992 15.109C0.163389 18.9191 0.628731 22.7152 1.548 26.4158C2.79934 31.4692 4.97771 36.2535 7.97527 40.5319C11.4403 45.4553 16.466 50.2961 23.6989 54.1384L25.0732 54.8685C25.2352 54.955 25.4162 55.0002 25.6002 55.0002C25.7842 55.0002 25.9655 54.955 26.1273 54.8685L27.4997 54.1384C34.7249 50.2942 39.7525 45.4553 43.2234 40.5319C46.2194 36.2538 48.3964 31.4701 49.6467 26.4177C50.566 22.7172 51.0313 18.9211 51.0327 15.1109C51.0509 13.3473 50.9334 11.5849 50.6814 9.83886L50.3882 8.08918C50.3654 7.94613 50.314 7.80897 50.2372 7.68561C50.1605 7.56223 50.0597 7.45509 49.9407 7.37035C49.8218 7.28561 49.6869 7.22494 49.5442 7.19184C49.4014 7.15875 49.2533 7.15389 49.1086 7.17753C48.9639 7.20118 48.8253 7.25285 48.7009 7.32961C48.5765 7.40634 48.4687 7.50664 48.3839 7.62469C48.2989 7.74275 48.2385 7.87624 48.206 8.01746C48.1736 8.15869 48.1697 8.30485 48.1948 8.44755L48.1831 8.44371Z" fill="white"/>
<path fill-rule="evenodd" clip-rule="evenodd" d="M9.07543 7.25169L25.5954 2.26907L42.4843 7.35901C42.767 7.44246 43.0718 7.41193 43.3318 7.27412C43.5917 7.1363 43.7859 6.90243 43.8715 6.62366C43.9573 6.34489 43.9277 6.04396 43.7892 5.7867C43.6508 5.52943 43.4147 5.33681 43.1326 5.25098L25.9196 0.0633151C25.7084 -0.000597226 25.4825 -0.000597226 25.2712 0.0633151L8.42512 5.13983C8.28433 5.18138 8.15326 5.24996 8.03939 5.34165C7.92554 5.43335 7.83116 5.54633 7.76164 5.67413C7.69214 5.80192 7.64889 5.94202 7.63436 6.08635C7.61985 6.2307 7.63435 6.37645 7.67704 6.51524C7.71973 6.65405 7.78977 6.78314 7.88313 6.89515C7.97649 7.00716 8.09135 7.09985 8.22111 7.16792C8.35085 7.23599 8.49295 7.27809 8.63921 7.29181C8.78549 7.30552 8.93308 7.29059 9.07349 7.24785L9.07543 7.25169Z" fill="white"/>
<path fill-rule="evenodd" clip-rule="evenodd" d="M0.917304 8.76568L24.6014 54.3991C24.6937 54.5774 24.8338 54.7274 25.0064 54.8326C25.179 54.938 25.3775 54.9946 25.5804 54.9964C25.7832 54.9982 25.9827 54.9451 26.1572 54.8428C26.3316 54.7405 26.4743 54.593 26.5699 54.4163L41.0133 27.7495L41.0346 27.7075L50.2792 8.73502C50.4044 8.47319 50.42 8.17312 50.3224 7.90005C50.2249 7.62697 50.0221 7.40294 49.758 7.27669C49.4941 7.15044 49.1903 7.13214 48.9127 7.22579C48.6351 7.31944 48.4063 7.51747 48.2757 7.77681L39.0467 26.7338L25.6244 51.5321L2.8955 7.76147C2.83 7.63152 2.73903 7.51568 2.62784 7.42068C2.51666 7.32568 2.38749 7.2534 2.2478 7.20804C2.10812 7.16266 1.96071 7.14512 1.8141 7.15639C1.6675 7.16768 1.52462 7.20757 1.39375 7.27375C1.26287 7.33993 1.1466 7.43109 1.05168 7.54196C0.956748 7.65281 0.885049 7.78116 0.840734 7.91957C0.796419 8.05799 0.780368 8.2037 0.793511 8.34828C0.806655 8.49286 0.848732 8.63343 0.917304 8.76184V8.76568Z" fill="white"/>
<path fill-rule="evenodd" clip-rule="evenodd" d="M12.2559 29.088H38.5931C38.8878 29.088 39.1704 28.9725 39.379 28.7666C39.5873 28.5609 39.7045 28.2819 39.7045 27.9909C39.7045 27.6999 39.5873 27.4209 39.379 27.2151C39.1704 27.0094 38.8878 26.8937 38.5931 26.8937H12.2559C11.9612 26.8937 11.6785 27.0094 11.47 27.2151C11.2616 27.4209 11.1445 27.6999 11.1445 27.9909C11.1445 28.2819 11.2616 28.5609 11.47 28.7666C11.6785 28.9725 11.9612 29.088 12.2559 29.088ZM85.7172 19.6211H68.5837C68.2876 19.6226 68.004 19.7395 67.7946 19.9461C67.5853 20.1528 67.467 20.4326 67.4655 20.7249V34.3006C67.4674 34.5926 67.586 34.8723 67.7952 35.0788C68.0044 35.2855 68.2877 35.4024 68.5837 35.4044H85.7172V37.704H68.5837C68.1316 37.7061 67.6836 37.6197 67.2655 37.4499C66.8475 37.2799 66.4677 37.0301 66.148 36.7145C65.8283 36.399 65.5753 36.024 65.4031 35.6114C65.2311 35.1986 65.1436 34.7564 65.1457 34.3102V20.7346C65.1436 20.2882 65.2311 19.846 65.4031 19.4334C65.5753 19.0206 65.8283 18.6457 66.148 18.3301C66.4677 18.0145 66.8475 17.7647 67.2655 17.5949C67.6836 17.4249 68.1316 17.3386 68.5837 17.3407H85.7172V19.6211ZM117.89 17.3291V19.6288H101.389V26.3495H114.652V28.6683H101.387V35.4006H117.888V37.7003H99.0576V17.3291H117.89Z" fill="white"/>
<path d="M151.868 20.7518V26.7195C151.871 27.1657 151.783 27.6077 151.61 28.0204C151.437 28.4329 151.185 28.8078 150.865 29.1233C150.546 29.4388 150.166 29.6887 149.748 29.8586C149.33 30.0286 148.881 30.1152 148.43 30.1134H145.28L151.754 37.6927H148.688L142.242 30.1134H134.67C134.296 30.0946 133.923 30.0569 133.552 30.0004V37.6927H131.223V17.3579H148.412C148.865 17.3561 149.312 17.4428 149.73 17.6127C150.149 17.7827 150.528 18.0325 150.848 18.3481C151.167 18.6636 151.421 19.0385 151.592 19.451C151.765 19.8636 151.852 20.3057 151.851 20.7518H151.868ZM134.678 27.7946H148.43C148.574 27.7964 148.716 27.7698 148.849 27.7164C148.982 27.663 149.103 27.5839 149.205 27.4837C149.306 27.3835 149.386 27.2643 149.44 27.1331C149.494 27.0018 149.521 26.8611 149.519 26.7195V20.7518C149.521 20.6082 149.494 20.4653 149.441 20.3318C149.387 20.1983 149.306 20.0766 149.205 19.9739C149.106 19.8687 148.986 19.7852 148.852 19.7291C148.718 19.6729 148.574 19.6454 148.429 19.648H134.676C134.38 19.6495 134.097 19.7664 133.887 19.973C133.678 20.1797 133.56 20.4597 133.558 20.7518V26.7195C133.555 26.863 133.583 27.0055 133.64 27.1376C133.697 27.2698 133.781 27.3886 133.888 27.486C133.992 27.5867 134.116 27.6659 134.252 27.7188C134.387 27.7719 134.532 27.7976 134.678 27.7946Z" fill="white"/>
<path fill-rule="evenodd" clip-rule="evenodd" d="M164.188 17.3291H184.807V19.6288H175.684V37.7021H173.354V19.6288H164.188V17.3291ZM197.305 37.6926V17.3291H199.636V37.6926H197.305ZM230.596 17.3291H233.577L224.954 27.5108L233.605 37.6926H230.596L222.919 28.6702H216.272V37.6926H213.926V17.3291H216.276V26.3495H222.923L230.596 17.3291Z" fill="white"/>
</g>
</svg>
