<svg width="239" height="39" viewBox="0 0 239 39" fill="none" xmlns="http://www.w3.org/2000/svg">
<g clip-path="url(#clip0_767_17148)">
<mask id="mask0_767_17148" style="mask-type:luminance" maskUnits="userSpaceOnUse" x="0" y="0" width="239" height="39">
<path d="M239 0.5H0V38.5H239V0.5Z" fill="white"/>
</mask>
<g mask="url(#mask0_767_17148)">
<path d="M55.672 19.2264C55.672 23.851 59.1931 26.9366 63.4618 26.9366C65.7782 26.9415 68.0503 26.3138 70.0236 25.124V29.6156C69.1366 30.1552 66.4716 31.1356 63.4967 31.1356C56.5552 31.1242 51.0586 25.96 51.0586 19.2264C51.0586 12.4928 56.5552 7.34 63.4967 7.34C66.4716 7.34 69.1366 8.3128 70.0236 8.86V13.325C68.0487 12.1397 65.7772 11.5148 63.4618 11.52C59.1931 11.52 55.672 14.6018 55.672 19.2264ZM90.449 19.5V30.7898H86.1881V20.8338C86.1881 18.8578 85.2972 17.3834 83.0079 17.3834C80.7883 17.3834 79.4907 18.7552 79.4907 21.2366V30.7898H75.2297V6.3216H79.4907V16.8134C79.7967 16.0534 80.9936 13.6936 84.5806 13.6936C88.2643 13.6936 90.449 15.8406 90.449 19.5ZM113.617 27.271V30.7898H108.116C108.027 30.7951 107.937 30.782 107.853 30.7516C107.769 30.7212 107.692 30.6739 107.628 30.6127C107.563 30.5517 107.513 30.478 107.479 30.3967C107.445 30.3154 107.429 30.228 107.431 30.14V27.138C106.85 29.114 105.281 31.1242 102.008 31.1242C97.5648 31.1242 94.3536 27.8752 94.3536 22.4108C94.3536 16.878 97.8708 13.6936 102.244 13.6936C106.277 13.6936 107.098 16.9464 107.098 16.9464V14.0318H111.359V27.271H113.617ZM107.226 22.445C107.226 19.2948 105.676 17.315 103.127 17.315C100.668 17.315 98.7889 19.0934 98.7889 22.4108C98.7889 25.7282 100.338 27.5066 102.922 27.5066C105.552 27.5066 107.226 25.8308 107.226 22.445ZM123.398 14.7006V30.7898H119.137V17.5506H116.038V14.0318H122.731C122.821 14.029 122.91 14.0446 122.993 14.0774C123.077 14.1102 123.152 14.1597 123.215 14.2225C123.277 14.2854 123.326 14.3604 123.357 14.4427C123.389 14.525 123.403 14.6128 123.398 14.7006ZM123.262 10.5434H118.649V6.3216H123.262V10.5434ZM128.375 14.0318H132.578V17.0148C132.718 16.5778 133.74 13.6936 137.738 13.6936C141.429 13.6936 143.618 15.8406 143.618 19.4924V30.7898H139.357V20.8338C139.357 18.8578 138.47 17.3834 136.181 17.3834C133.957 17.3834 132.659 18.7552 132.659 21.2366V30.7898H128.399L128.375 14.0318ZM166.782 27.271V30.7898H161.281C161.192 30.7951 161.102 30.782 161.018 30.7516C160.934 30.7212 160.857 30.6739 160.793 30.6127C160.728 30.5517 160.678 30.478 160.644 30.3967C160.61 30.3154 160.593 30.228 160.596 30.14V27.138C160.015 29.114 158.446 31.1242 155.173 31.1242C150.73 31.1242 147.519 27.8752 147.519 22.4108C147.519 16.878 151.036 13.6936 155.413 13.6936C159.445 13.6936 160.263 16.9464 160.263 16.9464V14.0318H164.524V27.271H166.782ZM160.39 22.445C160.39 19.2948 158.841 17.315 156.292 17.315C153.832 17.315 151.954 19.0934 151.954 22.4108C151.954 25.7282 153.523 27.5066 156.106 27.5066C158.717 27.5066 160.39 25.8308 160.39 22.445ZM175.497 7.34V30.7898H171.213V9.8404H168.548V6.3216H174.459C174.596 6.32008 174.732 6.34537 174.858 6.396C174.985 6.44664 175.1 6.52161 175.197 6.61648C175.293 6.71135 175.37 6.82422 175.421 6.94847C175.473 7.07273 175.499 7.20584 175.497 7.34ZM183.171 38.5H178.91V34.9812H182.059C183.186 34.9812 183.702 34.6468 184.108 33.6398L185.375 30.4896L178.798 14.0318H183.547L187.544 25.8612L191.681 14.0318H196.43L188.025 35.2472C187.138 37.493 185.666 38.5 183.171 38.5ZM198.797 29.7182V25.6636C199.378 26.0436 201.733 27.5636 204.367 27.5636C206.381 27.5636 207.268 26.9936 207.268 25.8878C207.268 22.5704 198.557 25.0176 198.557 18.7172C198.557 15.8672 201.016 13.686 205.529 13.686C208.02 13.686 209.79 14.3244 210.483 14.7272V18.74C209.627 18.2004 207.919 17.1288 205.595 17.1288C203.581 17.1288 202.829 17.733 202.829 18.6716C202.829 21.3848 211.506 19.5076 211.506 25.6788C211.506 29.0304 208.671 31.1394 204.534 31.1394C201.814 31.1242 199.583 30.2198 198.797 29.7182ZM221.725 14.7006V30.7898H217.464V17.5506H214.365V14.0318H221.062C221.151 14.029 221.24 14.0445 221.324 14.0774C221.407 14.1103 221.482 14.1598 221.544 14.2227C221.606 14.2857 221.655 14.3607 221.686 14.443C221.717 14.5252 221.73 14.613 221.725 14.7006ZM221.589 10.5434H216.976V6.3216H221.589V10.5434ZM226.292 29.7182V25.6636C226.869 26.0436 229.228 27.5636 231.858 27.5636C233.876 27.5636 234.763 26.9936 234.763 25.8878C234.763 22.5704 226.051 25.0176 226.051 18.7172C226.051 15.8672 228.511 13.686 233.024 13.686C235.518 13.686 237.285 14.3244 237.978 14.7272V18.74C236.549 17.7396 234.848 17.1787 233.094 17.1288C231.075 17.1288 230.324 17.733 230.324 18.6716C230.324 21.3848 239.005 19.5076 239.005 25.6788C239.005 29.0304 236.169 31.1394 232.032 31.1394C229.317 31.1242 227.074 30.2198 226.292 29.7182Z" fill="white"/>
<path d="M19.3689 0.5C19.8028 0.5 20.2947 0.5532 20.2947 0.5532C18.8391 2.26581 17.962 4.3798 17.7846 6.6028C15.0421 7.05287 12.5171 8.34884 10.5765 10.3025C8.63587 12.2562 7.38054 14.7658 6.99282 17.467C4.48661 17.733 1.65116 18.8578 0.0203787 20.4652C-0.366979 9.4376 8.24786 0.5 19.3689 0.5ZM22.1579 33.6284C21.6448 33.7027 21.1269 33.7396 20.6085 33.7386C19.7135 33.7281 18.8203 33.6558 17.9357 33.522C17.2445 35.1545 16.3325 36.6884 15.2242 38.082C11.7477 37.3298 8.54976 35.6523 5.98172 33.2336C3.41367 30.8149 1.57484 27.7487 0.667267 24.3716C2.41424 22.3386 6.45052 21.1606 8.95672 21.1606C14.3023 21.1606 17.1377 23.9422 18.1216 28.278C14.9027 27.423 12.993 25.656 11.738 23.034C11.0045 22.7727 10.2289 22.6439 9.44867 22.654C8.74464 22.6511 8.04479 22.7602 7.3763 22.977C8.79403 28.278 14.0311 32.2376 20.4109 32.2376C26.3026 32.2376 28.8088 29.2964 28.8088 29.2964V24.7972C28.8088 24.7972 25.9191 27.7422 22.3206 28.3312C21.9158 25.5827 20.6121 23.0374 18.606 21.0781C16.5997 19.1189 13.9992 17.8517 11.1957 17.467C12.1214 12.9716 15.6115 10.456 20.3567 10.456C25.1018 10.456 28.9212 13.8266 28.9212 13.8266V9.3844C28.9212 9.3844 26.4653 7.1348 22.1037 6.656C22.2121 4.68 23.5214 2.2138 24.9391 1.3018C30.8812 3.122 36.6102 8.0468 38.2449 15.2174C38.2449 15.2174 35.6263 17.7862 30.7185 17.7862C26.6822 17.7862 24.1334 15.8064 22.7002 12.3294C21.9483 12.0667 21.1546 11.938 20.3567 11.9494C19.612 11.9414 18.8722 12.0703 18.1758 12.3294C19.7563 17.8964 24.7609 21.6394 30.3389 21.6394C35.7929 21.6394 38.7368 19.1808 38.7368 19.1808C38.7368 30.311 30.0639 38.2872 19.7563 38.5C20.9571 37.36 21.8829 34.8596 22.1579 33.6284Z" fill="white"/>
</g>
</g>
<defs>
<clipPath id="clip0_767_17148">
<rect y="0.5" width="239" height="38" fill="white"/>
</clipPath>
</defs>
</svg>
