<svg width="36" height="37" viewBox="0 0 36 37" fill="none" xmlns="http://www.w3.org/2000/svg">
<path d="M25.14 25.64L25.01 25.51M25.01 11.49L25.14 11.36L25.01 11.49ZM10.86 25.64L10.99 25.51L10.86 25.64ZM18 8.58V8.5V8.58ZM18 28.5V28.42V28.5ZM8.08 18.5H8H8.08ZM28 18.5H27.92H28ZM10.99 11.49L10.86 11.36L10.99 11.49Z" stroke="#484848" stroke-width="2" stroke-linecap="round" stroke-linejoin="round"/>
<path d="M18 25C21.5899 25 24.5 22.0899 24.5 18.5C24.5 14.9101 21.5899 12 18 12C14.4101 12 11.5 14.9101 11.5 18.5C11.5 22.0899 14.4101 25 18 25Z" stroke="#484848" stroke-width="1.5" stroke-linecap="round" stroke-linejoin="round"/>
</svg>
